Coordinates
version=1
nRows=43
nColumns=12
inDegrees=yes

Units are S.I. units (second, meters, Newtons, ...)
Angles are in degrees

endheader
time	SC_y	SC_z	SC_x	AC_y	AC_z	AC_x	GH_y	GH_z	GH_yy	EL_x	PS_y
       0.0              -22.77          7.546           57.2           62.5         -11.23         -15.73          173.9         0.9845          39.63          80.73          97.36
    0.0467              -22.77          7.549           57.2           62.5         -11.23         -15.73          173.9         0.9845          39.63          80.72          97.36
   0.09341              -22.77          7.552           57.2           62.5         -11.22         -15.73          173.9         0.9844          39.64          80.72          97.36
    0.1401              -22.78          7.555          57.19           62.5         -11.22         -15.72          173.9         0.9844          39.65          80.72          97.36
    0.1868              -22.78          7.559          57.19           62.5         -11.22         -15.72          173.9         0.9844          39.65          80.72          97.36
    0.2335              -22.78          7.562          57.19          62.49         -11.22         -15.72          173.9         0.9843          39.66          80.72          97.36
    0.2802              -22.79          7.566          57.19          62.49         -11.22         -15.71          173.9         0.9843          39.67          80.72          97.36
    0.3269              -22.79           7.57          57.18          62.49         -11.22         -15.71          173.9         0.9843          39.68          80.71          97.36
    0.3736               -22.8          7.575          57.18          62.49         -11.22         -15.71          173.9         0.9843          39.69          80.71          97.36
    0.4203               -22.8           7.58          57.17          62.49         -11.22          -15.7          173.9         0.9842           39.7          80.71          97.36
     0.467              -22.81          7.585          57.17          62.49         -11.22          -15.7          173.9         0.9842          39.71          80.71          97.35
    0.5137              -22.81           7.59          57.17          62.48         -11.22         -15.69          173.9         0.9841          39.72           80.7          97.35
    0.5605              -22.82          7.596          57.16          62.48         -11.22         -15.69          173.9         0.9841          39.73           80.7          97.35
    0.6072              -22.82          7.602          57.16          62.48         -11.22         -15.68          173.9          0.984          39.75           80.7          97.35
    0.6539              -22.83          7.609          57.15          62.48         -11.22         -15.67          173.9          0.984          39.76          80.69          97.35
    0.7006              -22.84          7.617          57.14          62.47         -11.21         -15.67          173.9         0.9839          39.78          80.69          97.35
    0.7473              -22.85          7.625          57.14          62.47         -11.21         -15.66          173.9         0.9839           39.8          80.68          97.35
     0.794              -22.86          7.634          57.13          62.47         -11.21         -15.65          173.9         0.9838          39.82          80.68          97.34
    0.8407              -22.87          7.643          57.12          62.46         -11.21         -15.64          173.9         0.9837          39.84          80.68          97.34
    0.8874              -22.88          7.654          57.11          62.46         -11.21         -15.63          173.8         0.9836          39.86          80.67          97.34
    0.9341              -22.89          7.665           57.1          62.46         -11.21         -15.62          173.8         0.9835          39.88          80.66          97.34
    0.9808               -22.9          7.678          57.09          62.45          -11.2         -15.61          173.8         0.9834          39.91          80.66          97.33
     1.027              -22.91          7.692          57.08          62.45          -11.2         -15.59          173.8         0.9833          39.94          80.65          97.33
     1.074              -22.93          7.708          57.07          62.44          -11.2         -15.58          173.8         0.9832          39.98          80.64          97.33
     1.121              -22.95          7.725          57.05          62.43          -11.2         -15.56          173.8         0.9831          40.01          80.63          97.32
     1.168              -22.97          7.744          57.04          62.42         -11.19         -15.54          173.8         0.9829          40.06          80.62          97.32
     1.214              -22.99          7.766          57.02          62.42         -11.19         -15.52          173.8         0.9827           40.1          80.61          97.31
     1.261              -23.01          7.791           57.0          62.41         -11.19          -15.5          173.8         0.9825          40.16           80.6          97.31
     1.308              -23.04          7.818          56.97           62.4         -11.18         -15.47          173.7         0.9823          40.22          80.58           97.3
     1.354              -23.07          7.849          56.95          62.38         -11.18         -15.44          173.7         0.9821          40.29          80.57          97.29
     1.401              -23.11          7.885          56.92          62.37         -11.17         -15.41          173.7         0.9818          40.36          80.55          97.28
     1.448              -23.15          7.926          56.88          62.36         -11.16         -15.37          173.7         0.9815          40.45          80.53          97.27
     1.495               -23.2          7.974          56.84          62.34         -11.15         -15.32          173.6         0.9811          40.56           80.5          97.26
     1.541              -23.25          8.029           56.8          62.32         -11.15         -15.27          173.6         0.9807          40.67          80.47          97.25
     1.588              -23.32          8.093          56.74          62.29         -11.14          -15.2          173.6         0.9802          40.82          80.44          97.23
     1.635              -23.39          8.169          56.68          62.26         -11.12         -15.13          173.5         0.9796          40.98           80.4          97.22
     1.681              -23.48          8.259          56.61          62.23         -11.11         -15.04          173.4         0.9788          41.18          80.35          97.19
     1.728              -23.59          8.367          56.52          62.19         -11.09         -14.94          173.4          0.978          41.41          80.29          97.17
     1.775              -23.72          8.498          56.41          62.14         -11.07         -14.81          173.3          0.977           41.7          80.22          97.14
     1.821              -23.88          8.658          56.27          62.07         -11.04         -14.66          173.2         0.9757          42.04          80.14           97.1
     1.868              -24.08          8.855          56.11           62.0         -11.01         -14.47          173.1         0.9741          42.47          80.04          97.05
     1.915              -24.33          9.101           55.9           61.9         -10.97         -14.23          172.9         0.9722          43.01          79.91          96.99
     1.962              -24.64           9.41          55.64          61.79         -10.92         -13.93          172.7         0.9698          43.68          79.74          96.92
